# xmcd
#
# Track frame offsets:
#	150
#	19019
#	34738
#	50948
#	71018
#	80838
#	94880
#	109940
#	125858
#	135137
#	146937
#	162632
#	176922
#	189055
#	208375
#
# Disc length: 2994 seconds
#
# Revision: 1
# Processed by: cddbd v1.5.2PL0 Copyright (c) Steve Scherf et al.
# Submitted via: audiograbber 1.83.01
#
DISCID=eb0bb00f
DTITLE=Alabama - Songs Of Inspiration
DYEAR=2006
DGENRE=Country
TTITLE0=His Eye Is On The Sparrow
TTITLE1=In The Garden
TTITLE2=Amazing Grace
TTITLE3=How Great Thou Art
TTITLE4=I Need Thee
TTITLE5=Old Shep
TTITLE6=Jesus Loves Me
TTITLE7=Silent Night
TTITLE8=I Am The Man Thomas
TTITLE9=Rock Of Ages
TTITLE10=In The Sweet By And By
TTITLE11=The Old Rugged Cross
TTITLE12=What Will I Leave Behind
TTITLE13=One Big Heaven
TTITLE14=Rain
EXTD=
EXTT0=
EXTT1=
EXTT2=
EXTT3=
EXTT4=
EXTT5=
EXTT6=
EXTT7=
EXTT8=
EXTT9=
EXTT10=
EXTT11=
EXTT12=
EXTT13=
EXTT14=
PLAYORDER=
